<svg xmlns="http://www.w3.org/2000/svg" xmlns:xlink="http://www.w3.org/1999/xlink" width="500" zoomAndPan="magnify" viewBox="0 0 375 374.999991" height="500" preserveAspectRatio="xMidYMid meet" version="1.0"><defs><clipPath id="80a563856b"><path d="M 13.304688 13.304688 L 362 13.304688 L 362 362 L 13.304688 362 Z M 13.304688 13.304688 " clip-rule="nonzero"/></clipPath></defs><g clip-path="url(#80a563856b)"><path fill="#ffffff" d="M 187.5 13.304688 C 91.296875 13.304688 13.304688 91.296875 13.304688 187.5 C 13.304688 283.703125 91.296875 361.691406 187.5 361.691406 C 283.703125 361.691406 361.691406 283.703125 361.691406 187.5 C 361.691406 91.296875 283.703125 13.304688 187.5 13.304688 Z M 187.5 303.628906 C 123.367188 303.628906 71.371094 251.632812 71.371094 187.5 C 71.371094 123.367188 123.367188 71.371094 187.5 71.371094 C 251.632812 71.371094 303.628906 123.367188 303.628906 187.5 C 303.628906 251.632812 251.632812 303.628906 187.5 303.628906 Z M 187.5 303.628906 " fill-opacity="1" fill-rule="nonzero"/></g></svg>